<svg width="57" height="57" viewBox="0 0 57 57" fill="none" xmlns="http://www.w3.org/2000/svg">
<path d="M51.9806 39.5343C52.3498 39.1926 52.5894 38.7096 52.5894 38.1676C52.5894 37.1386 51.7568 36.3059 50.7278 36.3059C50.5785 36.3059 50.4371 36.3295 50.2997 36.3609V33.1089L12.2381 16.417L10.0662 20.4702C9.51244 20.1992 8.88797 20.0421 8.22814 20.0421C5.91091 20.0421 4.02963 21.9194 4.02963 24.2406C4.02963 25.3246 4.44595 26.3104 5.11755 27.0566C4.44202 27.8029 4.02963 28.7847 4.02963 29.8727C4.02963 31.369 4.81514 32.6808 5.99339 33.4231C5.77345 33.863 5.64777 34.3579 5.64777 34.8802C5.64777 36.6987 7.12059 38.1715 8.93902 38.1715C9.26108 38.1715 9.57135 38.1244 9.86592 38.038C9.79522 38.3089 9.75202 38.5917 9.75202 38.8863C9.75202 40.7047 11.2248 42.1775 13.0433 42.1775C13.7345 42.1775 14.3708 41.9655 14.901 41.6041C15.4116 42.7588 16.5663 43.564 17.9095 43.564C18.3336 43.564 18.7421 43.4815 19.1152 43.3322C19.1113 43.4069 19.1034 43.4854 19.1034 43.564C19.1034 45.3824 20.5762 46.8552 22.3947 46.8552C22.7521 46.8552 23.0938 46.7963 23.4158 46.6903C23.6004 48.6815 25.2696 50.2407 27.308 50.2407C28.2428 50.2407 29.0989 49.9108 29.7706 49.3649C30.1554 50.4293 31.1648 51.1951 32.3627 51.1951C33.3524 51.1951 34.2126 50.6728 34.7035 49.8912C35.0334 50.4135 35.6108 50.767 36.2745 50.767C37.0797 50.767 37.7552 50.2564 38.0183 49.5416C38.4346 49.9737 39.0159 50.2447 39.664 50.2447C40.7008 50.2447 41.5649 49.5534 41.8477 48.6069C42.1304 48.7797 42.4564 48.8818 42.8138 48.8818C43.619 48.8818 44.2945 48.3712 44.5576 47.6564C44.974 48.0885 45.5552 48.3595 46.2033 48.3595C47.3344 48.3595 48.2691 47.5386 48.4537 46.4625C48.8818 46.6235 49.3453 46.7178 49.8284 46.7178C51.9885 46.7178 53.7402 44.9661 53.7402 42.806C53.7362 41.4313 53.0371 40.2334 51.9806 39.5343Z" fill="#F5ECDA"/>
<path d="M1.68884 21.6956C1.68884 21.6956 -0.184588 10.6553 17.0847 8.5541C21.5699 8.07887 30.6307 5.88339 45.512 16.5662C48.1827 18.6635 56.1006 25.4385 53.0489 32.8772C52.0945 34.6878 48.5637 39.554 42.1736 40.2216C38.5485 40.4141 32.728 41.2703 26.3379 35.7364C23.8557 33.6391 16.5584 28.392 11.9318 27.579C9.0215 27.0134 2.36829 25.6113 1.68884 21.6956Z" fill="#EACC53"/>
<path d="M52.9311 25.5289C52.935 26.6639 52.7308 27.8304 52.2438 29.0126C51.2894 30.8232 47.7586 35.6894 41.3685 36.357C37.7434 36.5495 31.9228 37.4057 25.5328 31.8718C23.0506 29.7745 15.7533 24.5274 11.1267 23.7144C8.71123 23.2392 3.71151 22.1905 1.70062 19.6062C1.54745 20.8552 1.68884 21.6917 1.68884 21.6917C2.3683 25.6074 9.0215 27.0096 11.9318 27.583C16.5584 28.396 23.8557 33.6431 26.334 35.7404C32.724 41.2743 38.5446 40.4142 42.1697 40.2256C48.5598 39.558 52.0906 34.6918 53.045 32.8812C54.1054 30.293 53.8384 27.7872 52.9311 25.5289Z" fill="#EBA824"/>
<path d="M44.1374 15.6079C44.1374 15.6079 41.7887 14.8931 38.1165 15.6079C34.4443 16.3227 24.8572 19.4255 21.4207 22.1904C18.9895 24.001 17.5913 25.3992 17.1279 31.7146C16.7548 36.7694 16.0085 41.3253 19.1152 43.3244C17.827 43.7368 14.5043 44.534 12.8115 42.6724C12.0614 41.6002 9.83057 39.8839 11.4998 25.0025C11.8807 23.0938 13.0747 19.8614 17.1515 17.501C21.1182 15.2034 30.5678 10.7771 36.2195 11.1148C37.4017 11.4958 41.0739 13.5695 44.1374 15.6079Z" fill="#6E4921"/>
<path d="M16.4641 11.9358C16.4641 11.9358 16.4681 11.9279 16.4799 11.9083C16.4877 11.8886 16.5034 11.8611 16.5231 11.8258C16.5623 11.7551 16.6252 11.653 16.7116 11.5312C16.798 11.4095 16.9079 11.2681 17.0454 11.1149C17.0808 11.0756 17.1161 11.0403 17.1554 11.001L17.2732 10.8832C17.3557 10.8046 17.446 10.7261 17.5403 10.6436C17.6345 10.5611 17.7367 10.4826 17.8466 10.4001C17.9016 10.3608 17.9566 10.3216 18.0155 10.2823L18.1922 10.1645C18.314 10.0898 18.4397 10.0113 18.5732 9.94058C18.7068 9.86596 18.8442 9.80312 18.9895 9.73635C19.0602 9.70493 19.1349 9.67351 19.2095 9.64602C19.2841 9.61853 19.3587 9.58711 19.4373 9.55962C19.5904 9.50856 19.7475 9.45357 19.9086 9.4143C19.991 9.39073 20.0696 9.3711 20.1521 9.35146C20.2346 9.33182 20.317 9.31611 20.3995 9.3004C20.5645 9.26505 20.7373 9.24542 20.9062 9.22578C21.075 9.20614 21.2479 9.19828 21.4167 9.19043H21.8605L21.9234 9.19436C22.2612 9.21399 22.5911 9.26113 22.9053 9.33182C23.2195 9.40252 23.518 9.5007 23.789 9.61067C23.8557 9.63817 23.9225 9.66959 23.9893 9.69708C24.0521 9.7285 24.1189 9.75599 24.1778 9.78741C24.2995 9.85418 24.4134 9.91702 24.5234 9.98379C24.5509 9.9995 24.5784 10.0152 24.6019 10.0348C24.6294 10.0545 24.653 10.0702 24.6766 10.0859C24.7276 10.1213 24.7748 10.1527 24.8219 10.188C24.869 10.2234 24.9122 10.2548 24.9554 10.2901C24.979 10.3058 24.9986 10.3216 25.0183 10.3373C25.0379 10.3569 25.0575 10.3726 25.0772 10.3883C25.1557 10.459 25.2264 10.5219 25.2893 10.5847C25.3207 10.6161 25.3521 10.6436 25.3796 10.675C25.411 10.7025 25.4346 10.7339 25.4581 10.7614C25.5092 10.8164 25.5524 10.8675 25.5878 10.9146C25.6231 10.9578 25.6545 10.9971 25.6781 11.0324C25.7017 11.0639 25.7213 11.0913 25.7331 11.1071C25.7449 11.1228 25.7527 11.1345 25.7527 11.1345L25.6977 11.2367C25.6977 11.2367 25.6624 11.221 25.5995 11.1895C25.5367 11.1581 25.4424 11.1149 25.3207 11.0599C25.2618 11.0285 25.195 11.0049 25.1204 10.9735C25.0458 10.9421 24.9672 10.9107 24.8808 10.8753C24.7983 10.84 24.7001 10.8125 24.6059 10.7771C24.5587 10.7614 24.5077 10.7418 24.4566 10.7261C24.4291 10.7182 24.4056 10.7064 24.3781 10.6986L24.2956 10.675C24.1856 10.6436 24.0717 10.6122 23.9578 10.5808C23.84 10.5533 23.7143 10.5258 23.5887 10.4983C23.3334 10.4472 23.0663 10.404 22.7835 10.3765C22.5047 10.3451 22.2101 10.3333 21.9155 10.3333H21.8605L21.8056 10.3373L21.6956 10.3412C21.621 10.3451 21.5463 10.3451 21.4717 10.349C21.3971 10.3569 21.3225 10.3608 21.2479 10.3687C21.1732 10.3765 21.0986 10.3805 21.024 10.3883C20.8747 10.408 20.7255 10.4197 20.5762 10.4472C20.5016 10.459 20.427 10.4708 20.3563 10.4826C20.2817 10.4983 20.211 10.514 20.1364 10.5258C19.991 10.5533 19.8497 10.5926 19.7083 10.624C19.6376 10.6397 19.5669 10.6632 19.5001 10.6829C19.4294 10.7025 19.3626 10.7182 19.2959 10.7418C19.1623 10.785 19.0288 10.8243 18.8992 10.8714C18.8364 10.895 18.7696 10.9146 18.7068 10.9382C18.6439 10.9617 18.5811 10.9853 18.5222 11.0089C18.4593 11.0324 18.4004 11.056 18.3454 11.0796C18.2865 11.1031 18.2276 11.1267 18.1726 11.1503C18.0626 11.2013 17.9527 11.2445 17.8506 11.2956C17.7995 11.3191 17.7484 11.3427 17.7013 11.3663L17.5599 11.437C17.4657 11.4802 17.3793 11.5273 17.2968 11.5705C17.1357 11.6569 16.9944 11.7355 16.8805 11.8062C16.7666 11.8729 16.6802 11.9279 16.6212 11.9672C16.5898 11.9868 16.5702 12.0025 16.5545 12.0104C16.5388 12.0222 16.5309 12.0261 16.5309 12.0261L16.4641 11.9358Z" fill="white"/>
<path d="M33.3917 29.2404C33.3917 29.3368 33.4107 29.4324 33.4476 29.5215C33.4845 29.6106 33.5386 29.6916 33.6068 29.7598C33.675 29.8281 33.7559 29.8822 33.8451 29.9191C33.9342 29.956 34.0297 29.975 34.1262 29.975C34.2226 29.975 34.3182 29.956 34.4073 29.9191C34.4964 29.8822 34.5774 29.8281 34.6456 29.7598C34.7138 29.6916 34.7679 29.6106 34.8048 29.5215C34.8417 29.4324 34.8606 29.3368 34.8606 29.2404C34.8606 29.1439 34.8417 29.0484 34.8048 28.9593C34.7679 28.8701 34.7138 28.7891 34.6456 28.7209C34.5774 28.6527 34.4964 28.5986 34.4073 28.5617C34.3182 28.5247 34.2226 28.5057 34.1262 28.5057C34.0297 28.5057 33.9342 28.5247 33.8451 28.5617C33.7559 28.5986 33.675 28.6527 33.6068 28.7209C33.5386 28.7891 33.4845 28.8701 33.4476 28.9593C33.4107 29.0484 33.3917 29.1439 33.3917 29.2404Z" fill="#774621"/>
<path d="M42.6685 32.0563C42.6685 32.1528 42.6875 32.2483 42.7244 32.3374C42.7613 32.4265 42.8154 32.5075 42.8836 32.5757C42.9518 32.6439 43.0328 32.698 43.1219 32.7349C43.211 32.7718 43.3065 32.7908 43.4029 32.7908C43.4994 32.7908 43.5949 32.7718 43.684 32.7349C43.7731 32.698 43.8541 32.6439 43.9223 32.5757C43.9905 32.5075 44.0446 32.4265 44.0815 32.3374C44.1184 32.2483 44.1374 32.1528 44.1374 32.0563C44.1374 31.9599 44.1184 31.8644 44.0815 31.7753C44.0446 31.6862 43.9905 31.6052 43.9223 31.537C43.8541 31.4688 43.7731 31.4147 43.684 31.3778C43.5949 31.3409 43.4994 31.3219 43.4029 31.3219C43.3065 31.3219 43.211 31.3409 43.1219 31.3778C43.0328 31.4147 42.9518 31.4688 42.8836 31.537C42.8154 31.6052 42.7613 31.6862 42.7244 31.7753C42.6875 31.8644 42.6685 31.9599 42.6685 32.0563Z" fill="#774621"/>
<path d="M35.3712 32.7908C35.3712 32.8873 35.3901 32.9828 35.427 33.0719C35.4639 33.1611 35.518 33.242 35.5862 33.3103C35.6544 33.3785 35.7354 33.4326 35.8245 33.4695C35.9136 33.5064 36.0092 33.5254 36.1056 33.5254C36.2021 33.5254 36.2976 33.5064 36.3867 33.4695C36.4759 33.4326 36.5568 33.3785 36.625 33.3103C36.6932 33.242 36.7473 33.1611 36.7842 33.0719C36.8211 32.9828 36.8401 32.8873 36.8401 32.7908C36.8401 32.6943 36.8211 32.5988 36.7842 32.5097C36.7473 32.4205 36.6932 32.3396 36.625 32.2713C36.5568 32.2031 36.4759 32.149 36.3867 32.1121C36.2976 32.0752 36.2021 32.0562 36.1056 32.0562C36.0092 32.0562 35.9136 32.0752 35.8245 32.1121C35.7354 32.149 35.6544 32.2031 35.5862 32.2713C35.518 32.3396 35.4639 32.4205 35.427 32.5097C35.3901 32.5988 35.3712 32.6943 35.3712 32.7908Z" fill="#774621"/>
<path d="M38.7096 29.9983C38.7095 30.0948 38.7285 30.1903 38.7654 30.2794C38.8023 30.3686 38.8564 30.4496 38.9246 30.5178C38.9928 30.586 39.0738 30.6401 39.1629 30.677C39.252 30.714 39.3475 30.733 39.444 30.733C39.5405 30.733 39.636 30.714 39.7251 30.677C39.8142 30.6401 39.8952 30.586 39.9634 30.5178C40.0316 30.4496 40.0857 30.3686 40.1226 30.2794C40.1595 30.1903 40.1785 30.0948 40.1785 29.9983C40.1785 29.9019 40.1595 29.8063 40.1226 29.7172C40.0857 29.6281 40.0316 29.5471 39.9634 29.4789C39.8952 29.4106 39.8142 29.3565 39.7251 29.3196C39.636 29.2827 39.5405 29.2637 39.444 29.2637C39.3475 29.2637 39.252 29.2827 39.1629 29.3196C39.0738 29.3565 38.9928 29.4106 38.9246 29.4789C38.8564 29.5471 38.8023 29.6281 38.7654 29.7172C38.7285 29.8063 38.7095 29.9019 38.7096 29.9983Z" fill="#774621"/>
<path d="M45.3314 24.6255C45.3313 24.722 45.3503 24.8175 45.3872 24.9066C45.4241 24.9958 45.4782 25.0768 45.5464 25.145C45.6146 25.2132 45.6956 25.2673 45.7847 25.3042C45.8738 25.3412 45.9693 25.3602 46.0658 25.3602C46.1623 25.3602 46.2578 25.3412 46.3469 25.3042C46.436 25.2673 46.517 25.2132 46.5852 25.145C46.6534 25.0768 46.7075 24.9958 46.7444 24.9066C46.7813 24.8175 46.8003 24.722 46.8002 24.6255C46.8003 24.529 46.7813 24.4335 46.7444 24.3444C46.7075 24.2553 46.6534 24.1743 46.5852 24.1061C46.517 24.0378 46.436 23.9837 46.3469 23.9468C46.2578 23.9099 46.1623 23.8909 46.0658 23.8909C45.9693 23.8909 45.8738 23.9099 45.7847 23.9468C45.6956 23.9837 45.6146 24.0378 45.5464 24.1061C45.4782 24.1743 45.4241 24.2553 45.3872 24.3444C45.3503 24.4335 45.3313 24.529 45.3314 24.6255Z" fill="#774621"/>
<path d="M44.1374 19.1309C44.1374 19.2485 44.1606 19.365 44.2056 19.4736C44.2506 19.5823 44.3165 19.681 44.3997 19.7641C44.4828 19.8473 44.5815 19.9133 44.6902 19.9583C44.7988 20.0033 44.9153 20.0264 45.0329 20.0264C45.1505 20.0264 45.2669 20.0033 45.3755 19.9583C45.4842 19.9133 45.5829 19.8473 45.6661 19.7641C45.7492 19.681 45.8152 19.5823 45.8602 19.4736C45.9052 19.365 45.9283 19.2485 45.9283 19.1309C45.9283 19.0134 45.9052 18.8969 45.8602 18.7883C45.8152 18.6796 45.7492 18.5809 45.6661 18.4978C45.5829 18.4146 45.4842 18.3486 45.3755 18.3036C45.2669 18.2586 45.1505 18.2355 45.0329 18.2355C44.9153 18.2355 44.7988 18.2586 44.6902 18.3036C44.5815 18.3486 44.4828 18.4146 44.3997 18.4978C44.3165 18.5809 44.2506 18.6796 44.2056 18.7883C44.1606 18.8969 44.1374 19.0134 44.1374 19.1309Z" fill="#774621"/>
</svg>
