<svg width="39" height="39" viewBox="0 0 39 39" fill="none" xmlns="http://www.w3.org/2000/svg">
<path d="M33.5152 15.9984V14.3753H27.4626V10.3176H25.8395V14.3753H19.3473V10.3176H17.7242V14.3753H9.60889V15.9984H17.7242V20.8675H12.0435V22.4906H17.7242V26.5483H19.3473V22.4906H25.8395V26.5482H27.4626V22.4906H33.1433V20.8675H27.4626V15.9984H33.5152ZM25.8395 20.8675H19.3473V15.9984H25.8395V20.8675Z" fill="#74E8AE"/>
<path d="M35.2894 12.302C35.3415 11.9556 35.3182 11.6021 35.2211 11.2655C35.124 10.929 34.9554 10.6174 34.7267 10.352C34.4982 10.0865 34.2151 9.8734 33.8967 9.72739C33.5783 9.58138 33.232 9.50586 32.8817 9.50601H9.4146L8.31363 5.14014L8.31324 5.14025V5.14014H4.46352C4.01534 5.14014 3.65198 5.5035 3.65198 5.95167C3.65198 6.39989 4.01534 6.76321 4.46352 6.76321H7.04904L9.70293 17.2875L12.221 27.3597H13.4283C12.5911 28.0295 12.0435 29.047 12.0435 30.2001C12.0435 32.2139 13.6816 33.852 15.6954 33.852C17.7092 33.852 19.3473 32.2139 19.3473 30.2001C19.3473 29.047 18.7996 28.0295 17.9624 27.3597H27.2244C26.3872 28.0295 25.8396 29.047 25.8396 30.2001C25.8396 32.2139 27.4777 33.852 29.4915 33.852C31.5052 33.852 33.1434 32.2139 33.1434 30.2001C33.1434 29.047 32.5957 28.0295 31.7585 27.3597H33.0308L35.2894 12.302ZM15.6953 32.2289C14.5763 32.2289 13.6665 31.3187 13.6665 30.2001C13.6665 29.0814 14.5763 28.1712 15.6953 28.1712C16.8144 28.1712 17.7242 29.0814 17.7242 30.2001C17.7242 31.3187 16.8144 32.2289 15.6953 32.2289ZM29.4914 32.2289C28.3724 32.2289 27.4626 31.3187 27.4626 30.2001C27.4626 29.0814 28.3724 28.1712 29.4914 28.1712C30.6104 28.1712 31.5202 29.0814 31.5202 30.2001C31.5202 31.3187 30.6104 32.2289 29.4914 32.2289ZM9.83711 11.1291H32.8817C33.1219 11.1291 33.3398 11.2293 33.4967 11.4108C33.6529 11.5927 33.7194 11.8237 33.6838 12.0611L31.6327 25.7367H13.489L12.2748 20.88L12.2823 20.8781L11.3643 17.2379L9.83711 11.1291Z" fill="#22C67F"/>
</svg>
